<?xml version="1.0" encoding="UTF-8"?>
<svg xmlns="http://www.w3.org/2000/svg" xmlns:xlink="http://www.w3.org/1999/xlink" viewBox="0 0 48 48" width="48px" height="48px">
<g id="surface115185827">
<path style=" stroke:none;fill-rule:nonzero;fill:rgb(100%,100%,100%);fill-opacity:1;" d="M 39.488281 6.980469 C 39.089844 6.988281 38.714844 7.152344 38.441406 7.4375 L 24 21.878906 L 9.5625 7.4375 C 9.277344 7.148438 8.890625 6.984375 8.484375 6.984375 C 7.875 6.984375 7.324219 7.355469 7.09375 7.921875 C 6.863281 8.488281 7 9.136719 7.441406 9.558594 L 21.878906 24 L 7.441406 38.4375 C 7.046875 38.816406 6.890625 39.375 7.027344 39.898438 C 7.164062 40.425781 7.574219 40.835938 8.101562 40.972656 C 8.625 41.109375 9.183594 40.953125 9.5625 40.558594 L 24 26.121094 L 38.441406 40.558594 C 38.816406 40.953125 39.375 41.109375 39.898438 40.972656 C 40.425781 40.835938 40.835938 40.425781 40.972656 39.898438 C 41.109375 39.375 40.953125 38.816406 40.5625 38.4375 L 26.121094 24 L 40.5625 9.558594 C 41.007812 9.132812 41.144531 8.472656 40.90625 7.902344 C 40.667969 7.332031 40.105469 6.964844 39.488281 6.976562 Z M 39.488281 6.980469 "/>
</g>
</svg>
